<svg width="36" height="30" viewBox="0 0 36 30" fill="none" xmlns="http://www.w3.org/2000/svg">
<g filter="url(#filter0_d_61_651)">
<path d="M6 26.8515C5.175 26.8515 4.46875 26.562 3.88125 25.9831C3.29375 25.4042 3 24.7083 3 23.8953V3.20225C3 2.38931 3.29375 1.69338 3.88125 1.11446C4.46875 0.53555 5.175 0.246094 6 0.246094H30C30.825 0.246094 31.5313 0.53555 32.1188 1.11446C32.7063 1.69338 33 2.38931 33 3.20225V23.8953C33 24.7083 32.7063 25.4042 32.1188 25.9831C31.5313 26.562 30.825 26.8515 30 26.8515H6ZM6 23.8953H30V3.20225H6V23.8953ZM9 20.9392H27V17.983H9V20.9392ZM9 15.0269H15V6.1584H9V15.0269ZM18 15.0269H27V12.0707H18V15.0269ZM18 9.11455H27V6.1584H18V9.11455Z" fill="#A2C5D4"/>
</g>
<defs>
<filter id="filter0_d_61_651" x="-1" y="0.246094" width="38" height="34.6055" filterUnits="userSpaceOnUse" color-interpolation-filters="sRGB">
<feFlood flood-opacity="0" result="BackgroundImageFix"/>
<feColorMatrix in="SourceAlpha" type="matrix" values="0 0 0 0 0 0 0 0 0 0 0 0 0 0 0 0 0 0 127 0" result="hardAlpha"/>
<feOffset dy="4"/>
<feGaussianBlur stdDeviation="2"/>
<feComposite in2="hardAlpha" operator="out"/>
<feColorMatrix type="matrix" values="0 0 0 0 0 0 0 0 0 0 0 0 0 0 0 0 0 0 0.25 0"/>
<feBlend mode="normal" in2="BackgroundImageFix" result="effect1_dropShadow_61_651"/>
<feBlend mode="normal" in="SourceGraphic" in2="effect1_dropShadow_61_651" result="shape"/>
</filter>
</defs>
</svg>
