<svg width="27" height="31" viewBox="0 0 27 31" fill="none" xmlns="http://www.w3.org/2000/svg">
<path d="M24.2175 0H2.69083C1.21088 0 0.0134542 1.36895 0.0134542 3.04211L0 30.4211L5.38167 24.3369H24.2175C25.6975 24.3369 26.9083 22.9679 26.9083 21.2948V3.04211C26.9083 1.36895 25.6975 0 24.2175 0ZM6.72708 10.6474H20.1813C20.9212 10.6474 21.5267 11.3319 21.5267 12.1684C21.5267 13.005 20.9212 13.6895 20.1813 13.6895H6.72708C5.9871 13.6895 5.38167 13.005 5.38167 12.1684C5.38167 11.3319 5.9871 10.6474 6.72708 10.6474ZM14.7996 18.2527H6.72708C5.9871 18.2527 5.38167 17.5682 5.38167 16.7316C5.38167 15.895 5.9871 15.2105 6.72708 15.2105H14.7996C15.5396 15.2105 16.145 15.895 16.145 16.7316C16.145 17.5682 15.5396 18.2527 14.7996 18.2527ZM20.1813 9.12633H6.72708C5.9871 9.12633 5.38167 8.44185 5.38167 7.60527C5.38167 6.76869 5.9871 6.08422 6.72708 6.08422H20.1813C20.9212 6.08422 21.5267 6.76869 21.5267 7.60527C21.5267 8.44185 20.9212 9.12633 20.1813 9.12633Z" fill="#A2C5D4"/>
</svg>
