<svg width="26" height="24" viewBox="0 0 26 24" fill="none" xmlns="http://www.w3.org/2000/svg">
<path d="M24.1365 12C24.1365 18.0751 19.0311 23 12.7332 23M24.1365 12C24.1365 5.92487 19.0311 1 12.7332 1M24.1365 12H1.32983M12.7332 23C6.43528 23 1.32983 18.0751 1.32983 12M12.7332 23C15.1412 23 17.0933 18.0751 17.0933 12C17.0933 5.92487 15.1412 1 12.7332 1M12.7332 23C10.3252 23 8.37307 18.0751 8.37307 12C8.37307 5.92487 10.3252 1 12.7332 1M1.32983 12C1.32983 5.92487 6.43528 1 12.7332 1M3.34219 5.85294C3.34219 5.85294 7.03437 7.47059 12.8134 7.47059C18.5925 7.47059 22.1241 5.85294 22.1241 5.85294M22.1241 18.1471C22.1241 18.1471 18.432 16.5294 12.6529 16.5294C6.87384 16.5294 3.34219 18.1471 3.34219 18.1471" stroke="#002BA6" stroke-width="2" stroke-linecap="round"/>
</svg>
