<svg width="27" height="26" viewBox="0 0 27 26" fill="none" xmlns="http://www.w3.org/2000/svg">
<path d="M23.3259 19.7475C24.8538 17.7903 25.7588 15.3602 25.7588 12.7274C25.7588 6.25052 20.282 1 13.5261 1C6.77021 1 1.29346 6.25052 1.29346 12.7274C1.29346 19.2042 6.77021 24.4547 13.5261 24.4547C15.6306 24.4547 17.6109 23.9453 19.3402 23.048L24.831 24.9899C25.1582 25.0589 25.4418 24.7638 25.3453 24.4547L23.3259 19.7475Z" stroke="#002BA6" stroke-width="2" stroke-linecap="round" stroke-linejoin="round"/>
<path d="M12.5036 6.85302L13.8252 9.01809C14.0178 9.33369 13.8737 9.53865 13.6453 9.74753C13.4169 9.95642 12.1121 10.5848 11.7784 10.767C11.4448 10.9492 14.4813 16.1059 14.8984 15.8781C15.3155 15.6504 16.4598 14.9414 16.7652 14.8587C17.0707 14.7761 17.3305 14.7605 17.5231 15.0761L18.8447 17.2411C18.9935 17.4849 18.9034 17.7981 18.6435 17.9358C14.7304 20.009 12.9242 20.4324 11.7669 18.4996L8.06903 12.4416C6.87793 10.5273 7.91214 8.83913 11.767 6.67047C12.023 6.52643 12.3548 6.60926 12.5036 6.85302Z" stroke="#002BA6" stroke-width="2" stroke-linecap="round"/>
</svg>
