<svg width="22" height="20" viewBox="0 0 22 20" fill="none" xmlns="http://www.w3.org/2000/svg">
<path d="M2.39852 1C1.84889 1 1.40332 1.56406 1.40332 2.25986V17.7401C1.40332 18.4359 1.84889 19 2.39852 19C8.24685 19 10.8339 19 19.0681 19C19.6178 19 20.0633 18.4359 20.0633 17.7401V2.25986C20.0633 1.56406 19.6178 1 19.0681 1H2.39852Z" stroke="#002BA6" stroke-width="2"/>
<path d="M15.8499 10.1448C15.8499 12.7904 13.6266 14.9351 10.8839 14.9351C8.14131 14.9351 5.91797 12.7904 5.91797 10.1448C5.91797 7.49919 8.14131 5.35449 10.8839 5.35449C13.6266 5.35449 15.8499 7.49919 15.8499 10.1448Z" stroke="#002BA6" stroke-width="2"/>
<path d="M17.6557 4.48425C17.6557 4.96527 17.2514 5.35522 16.7528 5.35522C16.2541 5.35522 15.8499 4.96527 15.8499 4.48425C15.8499 4.00323 16.2541 3.61328 16.7528 3.61328C17.2514 3.61328 17.6557 4.00323 17.6557 4.48425Z" fill="#3CC4FF"/>
</svg>
