<svg width="21" height="28" viewBox="0 0 21 28" fill="none" xmlns="http://www.w3.org/2000/svg">
<path d="M8.88983 27H11.3051M7.27966 20.3894C5.26695 20.3894 5.6695 17.7101 4.17879 16.1676C4.16672 16.1478 4.15494 16.1281 4.14346 16.1085C2.2134 14.5221 1 12.2239 1 9.66722C1 4.88045 5.25329 1 10.5 1C15.7467 1 20 4.88045 20 9.66722C20 12.255 18.7569 14.5779 16.7859 16.166L16.7846 16.1676C14.928 17.8937 15.5318 20.3894 13.3178 20.3894M7.27966 20.3894H6.47458M7.27966 20.3894H13.3178M13.3178 20.3894H14.1229M4.46187 20.3894H6.47458M6.47458 20.3894V23.6947C6.47458 24.7089 7.3757 25.531 8.48729 25.531H12.1102C13.2218 25.531 14.1229 24.7089 14.1229 23.6947V20.3894M14.1229 20.3894H16.1356" stroke="#002BA6" stroke-width="2" stroke-linecap="round"/>
</svg>
