<svg width="22" height="19" viewBox="0 0 22 19" fill="none" xmlns="http://www.w3.org/2000/svg">
<path d="M7.49601 9.82495C6.94372 9.82495 6.49601 9.37724 6.49601 8.82495C6.49601 8.27267 6.94372 7.82495 7.49601 7.82495V9.82495ZM20.488 8.82495L21.1052 8.03816C21.3469 8.22773 21.488 8.51782 21.488 8.82495C21.488 9.13208 21.3469 9.42218 21.1052 9.61174L20.488 8.82495ZM15.9662 6.54868C15.5317 6.2078 15.4558 5.5792 15.7967 5.14467C16.1375 4.71014 16.7661 4.63422 17.2007 4.9751L15.9662 6.54868ZM17.2007 12.6748C16.7661 13.0157 16.1375 12.9398 15.7967 12.5052C15.4558 12.0707 15.5317 11.4421 15.9662 11.1012L17.2007 12.6748ZM13.6899 16.2381L14.6899 16.2381V16.2381H13.6899ZM1 16.2381L2 16.2381L2 16.2381L1 16.2381ZM1 1.86348L0 1.86348V1.86348H1ZM12.6899 12.5959C12.6899 12.0436 13.1376 11.5959 13.6899 11.5959C14.2422 11.5959 14.6899 12.0436 14.6899 12.5959L12.6899 12.5959ZM14.6899 5.37579C14.6899 5.92807 14.2422 6.37579 13.6899 6.37579C13.1376 6.37579 12.6899 5.92807 12.6899 5.37579H14.6899ZM7.49601 8.82495V7.82495H20.488V8.82495V9.82495H7.49601V8.82495ZM20.488 8.82495L19.8708 9.61174L15.9662 6.54868L16.5834 5.76189L17.2007 4.9751L21.1052 8.03816L20.488 8.82495ZM20.488 8.82495L21.1052 9.61174L17.2007 12.6748L16.5834 11.888L15.9662 11.1012L19.8708 8.03816L20.488 8.82495ZM12.8017 17.1016V16.1016C12.7802 16.1016 12.7539 16.111 12.7327 16.1316C12.7109 16.1528 12.6899 16.1912 12.6899 16.2381H13.6899H14.6899C14.6899 17.2936 13.8177 18.1016 12.8017 18.1016V17.1016ZM1.88819 17.1016V16.1016H12.8017V17.1016V18.1016H1.88819V17.1016ZM1 16.2381L2 16.2381C2 16.1912 1.979 16.1528 1.95721 16.1316C1.93593 16.111 1.90967 16.1016 1.88819 16.1016V17.1016V18.1016C0.872145 18.1016 2.26939e-06 17.2936 2.21792e-06 16.2381L1 16.2381ZM1.88819 0.999983V1.99998C1.90967 1.99998 1.93593 1.99059 1.95721 1.9699C1.979 1.94872 2 1.91031 2 1.86348H1H0C0 0.807909 0.872136 -1.71661e-05 1.88819 -1.71661e-05V0.999983ZM12.8017 0.999983V1.99998H1.88819V0.999983V-1.71661e-05H12.8017V0.999983ZM13.6899 1.86348H12.6899C12.6899 1.91031 12.7109 1.94873 12.7327 1.9699C12.7539 1.99059 12.7802 1.99998 12.8017 1.99998V0.999983V-1.71661e-05C13.8177 -1.71661e-05 14.6899 0.807906 14.6899 1.86348H13.6899ZM1 1.86348L2 1.86348L2 16.2381L1 16.2381L2.21792e-06 16.2381L0 1.86348L1 1.86348ZM13.6899 16.2381L12.6899 16.2381L12.6899 12.5959L13.6899 12.5959L14.6899 12.5959L14.6899 16.2381L13.6899 16.2381ZM13.6899 5.37579H12.6899V1.86348H13.6899H14.6899V5.37579H13.6899Z" fill="#002BA6"/>
</svg>
