<svg width="28" height="27" viewBox="0 0 28 27" fill="none" xmlns="http://www.w3.org/2000/svg">
<path d="M11.4468 1.57129H16.4523V5.48298C16.9759 5.63196 17.4783 5.82977 17.9539 6.07103L20.7924 3.3284L24.3318 6.78783L21.5258 9.56216C21.7726 10.027 21.975 10.518 22.1274 11.0299L26.1296 11.0299V15.9222L22.0226 15.9222C21.8658 16.3763 21.6692 16.8125 21.4368 17.2269L24.3318 20.1643L20.7924 23.6237L17.7871 20.6372C17.3613 20.8415 16.9151 21.0113 16.4523 21.143V25.3808H11.4468V21.0405C11.0427 20.9072 10.6525 20.7445 10.2789 20.5549L7.10668 23.6237L3.56727 20.1643L6.70701 17.0638C6.51308 16.6986 6.34658 16.3172 6.2102 15.9222L1.76953 15.9222V11.0299L6.10536 11.0299C6.23653 10.5894 6.40469 10.1644 6.60632 9.7582L3.56727 6.78783L7.10669 3.3284L10.0411 6.19647C10.486 5.95253 10.9562 5.74729 11.4468 5.58544V1.57129Z" fill="#C9EFFF"/>
<path d="M17.4067 12.7567C17.793 14.6435 16.5446 16.4363 14.6184 16.7612C12.6922 17.0862 10.8175 15.8201 10.4312 13.9334C10.045 12.0467 11.2933 10.2538 13.2195 9.92886C15.1457 9.60395 17.0204 10.87 17.4067 12.7567Z" fill="#C9EFFF"/>
<path d="M11.4468 1.57129V0.571289C10.8945 0.571289 10.4468 1.019 10.4468 1.57129L11.4468 1.57129ZM16.4523 1.57129H17.4523C17.4523 1.019 17.0046 0.571289 16.4523 0.571289V1.57129ZM16.4523 25.3808V26.3808C17.0046 26.3808 17.4523 25.9331 17.4523 25.3808H16.4523ZM11.4468 25.3808H10.4468C10.4468 25.9331 10.8945 26.3808 11.4468 26.3808V25.3808ZM26.1296 11.0299H27.1296C27.1296 10.4776 26.6818 10.0299 26.1296 10.0299L26.1296 11.0299ZM26.1296 15.9222L26.1296 16.9222C26.3948 16.9222 26.6491 16.8169 26.8367 16.6293C27.0242 16.4418 27.1296 16.1875 27.1296 15.9222H26.1296ZM1.76953 15.9222H0.769531C0.769531 16.4745 1.21725 16.9222 1.76953 16.9222L1.76953 15.9222ZM1.76953 11.0299L1.76953 10.0299C1.50431 10.0299 1.24996 10.1352 1.06242 10.3228C0.874888 10.5103 0.769531 10.7647 0.769531 11.0299H1.76953ZM20.7924 3.3284L21.4914 2.61326C21.1044 2.23501 20.4867 2.23323 20.0976 2.60926L20.7924 3.3284ZM24.3318 6.78783L25.0349 7.49894C25.2256 7.31039 25.3326 7.05314 25.3318 6.78495C25.3311 6.51677 25.2226 6.26014 25.0308 6.07269L24.3318 6.78783ZM7.10668 23.6237L6.4077 24.3388C6.79487 24.7173 7.41287 24.7188 7.80198 24.3424L7.10668 23.6237ZM3.56727 20.1643L2.86462 19.4527C2.67373 19.6412 2.56658 19.8986 2.56727 20.1668C2.56796 20.4351 2.67643 20.6919 2.86829 20.8794L3.56727 20.1643ZM24.3318 20.1643L25.0308 20.8794C25.221 20.6935 25.3293 20.4395 25.3318 20.1736C25.3343 19.9077 25.2307 19.6517 25.0441 19.4623L24.3318 20.1643ZM20.7924 23.6237L20.0875 24.333C20.4753 24.7183 21.1005 24.7209 21.4914 24.3388L20.7924 23.6237ZM3.56727 6.78783L2.86829 6.07268C2.67579 6.26083 2.56727 6.51865 2.56727 6.78783C2.56727 7.057 2.67579 7.31482 2.86829 7.50297L3.56727 6.78783ZM7.10669 3.3284L7.80567 2.61326C7.41707 2.23345 6.7963 2.23345 6.40771 2.61326L7.10669 3.3284ZM22.0226 15.9222L22.0226 14.9222L21.31 14.9222L21.0774 15.5958L22.0226 15.9222ZM21.4368 17.2269L20.5646 16.7377L20.1968 17.3934L20.7246 17.9288L21.4368 17.2269ZM17.7871 20.6372L18.492 19.9279L17.9912 19.4303L17.3546 19.7356L17.7871 20.6372ZM16.4523 21.143L16.1786 20.1811L15.4523 20.3878V21.143H16.4523ZM11.4468 21.0405H12.4468V20.3174L11.7601 20.0909L11.4468 21.0405ZM10.2789 20.5549L10.7312 19.6631L10.0957 19.3407L9.58356 19.8362L10.2789 20.5549ZM6.70701 17.0638L7.40965 17.7753L7.93932 17.2523L7.59022 16.5948L6.70701 17.0638ZM6.2102 15.9222L7.15542 15.5958L6.92281 14.9222L6.2102 14.9222L6.2102 15.9222ZM6.10536 11.0299L6.10536 12.0299L6.85095 12.0299L7.06376 11.3153L6.10536 11.0299ZM6.60632 9.7582L7.50204 10.2028L7.8254 9.5514L7.3053 9.04306L6.60632 9.7582ZM10.0411 6.19647L9.34209 6.91162L9.87203 7.42958L10.5218 7.07334L10.0411 6.19647ZM11.4468 5.58544L11.7601 6.5351L12.4468 6.30855V5.58544H11.4468ZM16.4523 5.48298H15.4523V6.23815L16.1786 6.4448L16.4523 5.48298ZM17.9539 6.07103L17.5016 6.96285L18.1367 7.28501L18.6488 6.79017L17.9539 6.07103ZM21.5258 9.56216L20.8227 8.85104L20.2937 9.37408L20.6426 10.0311L21.5258 9.56216ZM22.1274 11.0299L21.169 11.3153L21.3818 12.0299L22.1274 12.0299L22.1274 11.0299ZM11.4468 1.57129V2.57129H16.4523V1.57129V0.571289H11.4468V1.57129ZM16.4523 25.3808V24.3808H11.4468V25.3808V26.3808H16.4523V25.3808ZM26.1296 11.0299H25.1296V15.9222H26.1296H27.1296V11.0299H26.1296ZM1.76953 15.9222H2.76953V11.0299H1.76953H0.769531V15.9222H1.76953ZM20.7924 3.3284L20.0934 4.04354L23.6328 7.50297L24.3318 6.78783L25.0308 6.07269L21.4914 2.61326L20.7924 3.3284ZM7.10668 23.6237L7.80566 22.9086L4.26625 19.4491L3.56727 20.1643L2.86829 20.8794L6.4077 24.3388L7.10668 23.6237ZM24.3318 20.1643L23.6328 19.4491L20.0934 22.9086L20.7924 23.6237L21.4914 24.3388L25.0308 20.8794L24.3318 20.1643ZM3.56727 6.78783L4.26625 7.50297L7.80567 4.04354L7.10669 3.3284L6.40771 2.61326L2.86829 6.07268L3.56727 6.78783ZM22.0226 15.9222L21.0774 15.5958C20.9403 15.9929 20.7682 16.3747 20.5646 16.7377L21.4368 17.2269L22.309 17.716C22.5701 17.2504 22.7913 16.7598 22.9678 16.2487L22.0226 15.9222ZM17.7871 20.6372L17.3546 19.7356C16.9796 19.9155 16.5865 20.0651 16.1786 20.1811L16.4523 21.143L16.7259 22.1048C17.2437 21.9575 17.743 21.7675 18.2196 21.5389L17.7871 20.6372ZM11.4468 21.0405L11.7601 20.0909C11.4041 19.9734 11.0604 19.83 10.7312 19.6631L10.2789 20.5549L9.82648 21.4467C10.2447 21.6589 10.6814 21.841 11.1335 21.9902L11.4468 21.0405ZM6.70701 17.0638L7.59022 16.5948C7.42035 16.2749 7.27467 15.9411 7.15542 15.5958L6.2102 15.9222L5.26497 16.2487C5.41849 16.6932 5.6058 17.1222 5.82379 17.5328L6.70701 17.0638ZM6.10536 11.0299L7.06376 11.3153C7.17842 10.9303 7.32549 10.5585 7.50204 10.2028L6.60632 9.7582L5.71061 9.31357C5.48388 9.77032 5.29464 10.2486 5.14696 10.7444L6.10536 11.0299ZM10.0411 6.19647L10.5218 7.07334C10.9137 6.85849 11.3279 6.6777 11.7601 6.5351L11.4468 5.58544L11.1335 4.63579C10.5846 4.81689 10.0584 5.04657 9.56034 5.31961L10.0411 6.19647ZM16.4523 5.48298L16.1786 6.4448C16.6401 6.57609 17.0827 6.75036 17.5016 6.96285L17.9539 6.07103L18.4063 5.1792C17.874 4.90918 17.3118 4.68783 16.7259 4.52115L16.4523 5.48298ZM21.5258 9.56216L20.6426 10.0311C20.8588 10.4383 21.0358 10.8679 21.169 11.3153L22.1274 11.0299L23.0858 10.7444C22.9142 10.1682 22.6865 9.61573 22.409 9.09319L21.5258 9.56216ZM11.4468 5.58544H12.4468V1.57129H11.4468H10.4468V5.58544H11.4468ZM16.4523 1.57129H15.4523V5.48298H16.4523H17.4523V1.57129H16.4523ZM7.10669 3.3284L6.40771 4.04354L9.34209 6.91162L10.0411 6.19647L10.7401 5.48133L7.80567 2.61326L7.10669 3.3284ZM6.60632 9.7582L7.3053 9.04306L4.26625 6.07268L3.56727 6.78783L2.86829 7.50297L5.90734 10.4733L6.60632 9.7582ZM17.9539 6.07103L18.6488 6.79017L21.4873 4.04754L20.7924 3.3284L20.0976 2.60926L17.2591 5.35188L17.9539 6.07103ZM24.3318 6.78783L23.6287 6.07671L20.8227 8.85104L21.5258 9.56216L22.2289 10.2733L25.0349 7.49894L24.3318 6.78783ZM22.1274 11.0299L22.1274 12.0299L26.1296 12.0299L26.1296 11.0299L26.1296 10.0299L22.1274 10.0299L22.1274 11.0299ZM26.1296 15.9222L26.1296 14.9222L22.0226 14.9222L22.0226 15.9222L22.0226 16.9222L26.1296 16.9222L26.1296 15.9222ZM21.4368 17.2269L20.7246 17.9288L23.6196 20.8662L24.3318 20.1643L25.0441 19.4623L22.149 16.5249L21.4368 17.2269ZM20.7924 23.6237L21.4973 22.9144L18.492 19.9279L17.7871 20.6372L17.0822 21.3466L20.0875 24.333L20.7924 23.6237ZM16.4523 21.143H15.4523V25.3808H16.4523H17.4523V21.143H16.4523ZM11.4468 25.3808H12.4468V21.0405H11.4468H10.4468V25.3808H11.4468ZM10.2789 20.5549L9.58356 19.8362L6.41139 22.905L7.10668 23.6237L7.80198 24.3424L10.9742 21.2736L10.2789 20.5549ZM3.56727 20.1643L4.26991 20.8758L7.40965 17.7753L6.70701 17.0638L6.00436 16.3522L2.86462 19.4527L3.56727 20.1643ZM6.2102 15.9222L6.2102 14.9222L1.76953 14.9222L1.76953 15.9222L1.76953 16.9222L6.2102 16.9222L6.2102 15.9222ZM1.76953 11.0299L1.76953 12.0299L6.10536 12.0299L6.10536 11.0299L6.10536 10.0299L1.76953 10.0299L1.76953 11.0299ZM17.4067 12.7567L16.427 12.9573C16.6969 14.2758 15.8342 15.542 14.4521 15.7752L14.6184 16.7612L14.7847 17.7473C17.255 17.3306 18.889 15.0111 18.3863 12.5562L17.4067 12.7567ZM14.6184 16.7612L14.4521 15.7752C13.0445 16.0126 11.6866 15.0793 11.4109 13.7328L10.4312 13.9334L9.45156 14.1339C9.94845 16.5609 12.3399 18.1597 14.7847 17.7473L14.6184 16.7612ZM10.4312 13.9334L11.4109 13.7328C11.141 12.4143 12.0037 11.1481 13.3858 10.9149L13.2195 9.92886L13.0532 8.94279C10.5829 9.35948 8.94894 11.679 9.45156 14.1339L10.4312 13.9334ZM13.2195 9.92886L13.3858 10.9149C14.7934 10.6775 16.1513 11.6108 16.427 12.9573L17.4067 12.7567L18.3863 12.5562C17.8895 10.1293 15.498 8.5304 13.0532 8.94279L13.2195 9.92886Z" fill="#002BA6"/>
</svg>
